<svg width="228" height="125" viewBox="0 0 228 125" fill="none" xmlns="http://www.w3.org/2000/svg">
<g clip-path="url(#clip0_1_3234)">
<path d="M84.1455 42.8474V96.6894H5.19304V69.2503L53.4997 14.3424L84.1455 42.8474Z" fill="#64AF37"/>
<path d="M97.3518 93.1814L99.3964 93.8296C99.083 94.9695 98.5605 95.8172 97.8291 96.3729C97.1025 96.9238 96.1787 97.1993 95.0579 97.1993C93.6711 97.1993 92.5312 96.7267 91.6384 95.7816C90.7455 94.8318 90.299 93.5352 90.299 91.8919C90.299 90.1536 90.7478 88.8048 91.6455 87.8455C92.5431 86.8813 93.7233 86.3993 95.1861 86.3993C96.4637 86.3993 97.5014 86.7768 98.2993 87.532C98.7743 87.9784 99.1305 88.6196 99.3679 89.4555L97.2806 89.9542C97.1571 89.4127 96.8983 88.9853 96.5041 88.6718C96.1146 88.3584 95.6397 88.2017 95.0793 88.2017C94.3051 88.2017 93.6758 88.4795 93.1914 89.0352C92.7117 89.5908 92.4719 90.4908 92.4719 91.7352C92.4719 93.0555 92.7093 93.9959 93.1843 94.5563C93.6592 95.1167 94.2766 95.3969 95.0365 95.3969C95.5969 95.3969 96.079 95.2188 96.4827 94.8626C96.8864 94.5064 97.1761 93.946 97.3518 93.1814ZM102.391 91.8634C102.391 90.7996 102.55 89.9067 102.868 89.1848C103.105 88.6528 103.428 88.1755 103.837 87.7528C104.25 87.3301 104.701 87.0167 105.19 86.8125C105.841 86.537 106.591 86.3993 107.441 86.3993C108.98 86.3993 110.21 86.8766 111.132 87.8312C112.058 88.7858 112.521 90.1133 112.521 91.8135C112.521 93.4996 112.063 94.8199 111.146 95.7745C110.229 96.7244 109.004 97.1993 107.47 97.1993C105.917 97.1993 104.682 96.7267 103.765 95.7816C102.849 94.8318 102.391 93.5257 102.391 91.8634ZM104.563 91.7922C104.563 92.9748 104.836 93.8724 105.383 94.4851C105.929 95.093 106.622 95.3969 107.463 95.3969C108.303 95.3969 108.992 95.0953 109.529 94.4922C110.07 93.8843 110.341 92.9748 110.341 91.7637C110.341 90.5668 110.077 89.674 109.55 89.085C109.028 88.4961 108.332 88.2017 107.463 88.2017C106.594 88.2017 105.893 88.5009 105.361 89.0993C104.829 89.693 104.563 90.5906 104.563 91.7922ZM115.8 97.0212V86.5774H117.852L122.126 93.5518V86.5774H124.085V97.0212H121.969L117.759 90.2106V97.0212H115.8ZM127.393 93.623L129.444 93.4236C129.568 94.1122 129.817 94.618 130.192 94.941C130.572 95.2639 131.083 95.4254 131.724 95.4254C132.403 95.4254 132.914 95.2829 133.256 94.998C133.603 94.7083 133.776 94.3711 133.776 93.9864C133.776 93.7394 133.702 93.5304 133.555 93.3595C133.413 93.1837 133.161 93.0318 132.8 92.9035C132.553 92.818 131.99 92.6661 131.111 92.4476C129.981 92.1674 129.188 91.823 128.732 91.4146C128.091 90.8399 127.77 90.1394 127.77 89.313C127.77 88.7811 127.92 88.2848 128.219 87.8241C128.523 87.3586 128.958 87.0048 129.523 86.7626C130.093 86.5204 130.779 86.3993 131.582 86.3993C132.892 86.3993 133.878 86.6866 134.538 87.2613C135.203 87.836 135.552 88.603 135.585 89.5623L133.477 89.655C133.386 89.1183 133.192 88.7336 132.892 88.5009C132.598 88.2634 132.154 88.1447 131.56 88.1447C130.948 88.1447 130.468 88.2705 130.121 88.5222C129.898 88.6837 129.786 88.8998 129.786 89.1705C129.786 89.4175 129.891 89.6288 130.1 89.8046C130.366 90.0278 131.012 90.2605 132.038 90.5027C133.063 90.7449 133.821 90.9967 134.31 91.2579C134.804 91.5143 135.189 91.8682 135.464 92.3193C135.744 92.7658 135.885 93.3191 135.885 93.9792C135.885 94.5777 135.718 95.1381 135.386 95.6605C135.053 96.1829 134.583 96.5724 133.975 96.8289C133.367 97.0806 132.61 97.2064 131.703 97.2064C130.382 97.2064 129.368 96.9025 128.661 96.2946C127.953 95.6819 127.53 94.7914 127.393 93.623ZM141.614 97.0212V88.3441H138.515V86.5774H146.815V88.3441H143.723V97.0212H141.614ZM149.795 97.0212V86.5774H154.233C155.349 86.5774 156.159 86.6724 156.662 86.8623C157.17 87.0476 157.577 87.38 157.88 87.8597C158.184 88.3394 158.336 88.8879 158.336 89.5054C158.336 90.289 158.106 90.9373 157.645 91.4502C157.185 91.9584 156.496 92.279 155.579 92.412C156.035 92.6779 156.411 92.97 156.705 93.2882C157.004 93.6064 157.406 94.1716 157.909 94.9837L159.184 97.0212H156.662L155.138 94.7486C154.596 93.9365 154.226 93.4259 154.026 93.217C153.827 93.0033 153.616 92.8584 153.392 92.7824C153.169 92.7017 152.815 92.6613 152.331 92.6613H151.903V97.0212H149.795ZM151.903 90.9943H153.464C154.475 90.9943 155.107 90.9515 155.359 90.866C155.61 90.7806 155.807 90.6333 155.95 90.4244C156.092 90.2154 156.164 89.9542 156.164 89.6407C156.164 89.2893 156.069 89.0067 155.879 88.793C155.693 88.5745 155.43 88.4367 155.088 88.3798C154.917 88.356 154.404 88.3441 153.549 88.3441H151.903V90.9943ZM161.922 86.5774H164.031V92.2339C164.031 93.1315 164.057 93.7133 164.109 93.9792C164.199 94.4067 164.413 94.751 164.75 95.0122C165.092 95.2687 165.557 95.3969 166.146 95.3969C166.745 95.3969 167.196 95.2758 167.5 95.0336C167.804 94.7866 167.987 94.4851 168.048 94.1289C168.11 93.7727 168.141 93.1814 168.141 92.355V86.5774H170.25V92.0629C170.25 93.3167 170.193 94.2025 170.079 94.7201C169.965 95.2378 169.753 95.6748 169.445 96.031C169.141 96.3872 168.732 96.6721 168.219 96.8859C167.707 97.0948 167.037 97.1993 166.21 97.1993C165.213 97.1993 164.456 97.0853 163.938 96.8574C163.425 96.6246 163.019 96.3254 162.72 95.9597C162.42 95.5893 162.223 95.2022 162.128 94.7985C161.991 94.2001 161.922 93.3167 161.922 92.1484V86.5774ZM180.767 93.1814L182.811 93.8296C182.498 94.9695 181.976 95.8172 181.244 96.3729C180.518 96.9238 179.594 97.1993 178.473 97.1993C177.086 97.1993 175.946 96.7267 175.053 95.7816C174.161 94.8318 173.714 93.5352 173.714 91.8919C173.714 90.1536 174.163 88.8048 175.061 87.8455C175.958 86.8813 177.138 86.3993 178.601 86.3993C179.879 86.3993 180.916 86.7768 181.714 87.532C182.189 87.9784 182.545 88.6196 182.783 89.4555L180.696 89.9542C180.572 89.4127 180.313 88.9853 179.919 88.6718C179.53 88.3584 179.055 88.2017 178.494 88.2017C177.72 88.2017 177.091 88.4795 176.606 89.0352C176.127 89.5908 175.887 90.4908 175.887 91.7352C175.887 93.0555 176.124 93.9959 176.599 94.5563C177.074 95.1167 177.692 95.3969 178.452 95.3969C179.012 95.3969 179.494 95.2188 179.898 94.8626C180.301 94.5064 180.591 93.946 180.767 93.1814ZM188.584 97.0212V88.3441H185.485V86.5774H193.784V88.3441H190.693V97.0212H188.584ZM196.693 97.0212V86.5774H198.802V97.0212H196.693ZM201.995 91.8634C201.995 90.7996 202.154 89.9067 202.473 89.1848C202.71 88.6528 203.033 88.1755 203.442 87.7528C203.855 87.3301 204.306 87.0167 204.795 86.8125C205.446 86.537 206.196 86.3993 207.046 86.3993C208.585 86.3993 209.815 86.8766 210.737 87.8312C211.663 88.7858 212.126 90.1133 212.126 91.8135C212.126 93.4996 211.667 94.8199 210.751 95.7745C209.834 96.7244 208.609 97.1993 207.075 97.1993C205.522 97.1993 204.287 96.7267 203.37 95.7816C202.454 94.8318 201.995 93.5257 201.995 91.8634ZM204.168 91.7922C204.168 92.9748 204.441 93.8724 204.987 94.4851C205.534 95.093 206.227 95.3969 207.068 95.3969C207.908 95.3969 208.597 95.0953 209.134 94.4922C209.675 93.8843 209.946 92.9748 209.946 91.7637C209.946 90.5668 209.682 89.674 209.155 89.085C208.633 88.4961 207.937 88.2017 207.068 88.2017C206.199 88.2017 205.498 88.5009 204.966 89.0993C204.434 89.693 204.168 90.5906 204.168 91.7922ZM215.405 97.0212V86.5774H217.456L221.731 93.5518V86.5774H223.69V97.0212H221.574L217.364 90.2106V97.0212H215.405Z" fill="#252629"/>
<path d="M49.413 77.3607C48.6068 75.9033 47.4728 74.7725 46.0084 73.9709C44.5466 73.1693 42.8522 72.7698 40.9331 72.7698H14.3648V78.4862H22.7627V97.8943H28.5728V78.4862H41.0812C41.7869 78.4862 42.4055 78.6481 42.9368 78.972C43.4681 79.2986 43.8752 79.7574 44.1659 80.3593C44.4567 80.9584 44.6021 81.6467 44.6021 82.4266C44.6021 83.2066 44.4541 83.8706 44.1554 84.4616C43.8593 85.0527 43.4443 85.5142 42.9156 85.8381C42.3843 86.162 41.7737 86.3239 41.0812 86.3239H31.2188V92.0403H40.9331C42.8548 92.0403 44.5492 91.6435 46.0084 90.85C47.4728 90.0566 48.6068 88.9311 49.413 87.4818C50.2192 86.0297 50.6237 84.3456 50.6237 82.4266C50.6237 80.5077 50.2192 78.8182 49.413 77.3607Z" fill="white"/>
<path d="M7.20748 110.557V104.378H9.33613C9.81666 104.378 10.1834 104.407 10.4363 104.466C10.7904 104.548 11.0924 104.695 11.3425 104.909C11.6685 105.184 11.9116 105.537 12.0718 105.967C12.2347 106.394 12.3162 106.883 12.3162 107.434C12.3162 107.903 12.2614 108.319 12.1518 108.681C12.0423 109.044 11.9017 109.345 11.7303 109.583C11.5589 109.819 11.3706 110.006 11.1655 110.144C10.9632 110.279 10.7173 110.381 10.4279 110.452C10.1412 110.522 9.81104 110.557 9.43729 110.557H7.20748ZM8.02522 109.828H9.34456C9.75202 109.828 10.071 109.79 10.3014 109.714C10.5346 109.638 10.7201 109.531 10.8578 109.394C11.0517 109.2 11.202 108.94 11.3088 108.614C11.4184 108.285 11.4732 107.887 11.4732 107.421C11.4732 106.775 11.3664 106.279 11.1529 105.933C10.9421 105.585 10.685 105.351 10.3815 105.233C10.1623 105.149 9.80963 105.107 9.32348 105.107H8.02522V109.828ZM14.4123 110.557V104.378H18.8804V105.107H15.2301V106.999H18.6486V107.724H15.2301V109.828H19.0237V110.557H14.4123ZM20.8248 108.572L21.5961 108.504C21.6327 108.813 21.717 109.068 21.849 109.267C21.9839 109.464 22.1919 109.624 22.4729 109.748C22.7539 109.869 23.07 109.929 23.4213 109.929C23.7332 109.929 24.0086 109.883 24.2475 109.79C24.4863 109.697 24.6634 109.571 24.7786 109.411C24.8966 109.248 24.9556 109.071 24.9556 108.879C24.9556 108.686 24.8994 108.517 24.787 108.374C24.6746 108.227 24.4891 108.105 24.2306 108.007C24.0648 107.942 23.6981 107.843 23.1304 107.708C22.5628 107.57 22.1652 107.441 21.9376 107.32C21.6425 107.165 21.4219 106.974 21.2758 106.747C21.1325 106.516 21.0608 106.259 21.0608 105.975C21.0608 105.663 21.1493 105.372 21.3264 105.103C21.5034 104.83 21.7619 104.624 22.102 104.483C22.442 104.343 22.8199 104.272 23.2358 104.272C23.6939 104.272 24.0971 104.347 24.4456 104.496C24.7968 104.642 25.0666 104.858 25.2549 105.145C25.4432 105.431 25.5443 105.756 25.5584 106.119L24.7744 106.178C24.7322 105.787 24.5889 105.492 24.3444 105.292C24.1027 105.093 23.7445 104.993 23.2695 104.993C22.775 104.993 22.4139 105.084 22.1863 105.267C21.9614 105.447 21.849 105.665 21.849 105.92C21.849 106.142 21.9291 106.325 22.0893 106.468C22.2467 106.612 22.6569 106.759 23.3201 106.911C23.9861 107.06 24.4428 107.191 24.69 107.303C25.0497 107.469 25.3153 107.68 25.4867 107.935C25.6581 108.188 25.7438 108.48 25.7438 108.812C25.7438 109.141 25.6497 109.451 25.4614 109.744C25.2731 110.033 25.002 110.259 24.6479 110.422C24.2966 110.582 23.9004 110.662 23.4592 110.662C22.9 110.662 22.4307 110.581 22.0514 110.418C21.6748 110.255 21.3784 110.011 21.162 109.685C20.9484 109.356 20.836 108.985 20.8248 108.572ZM27.9495 110.557V104.378H28.7673V110.557H27.9495ZM34.0542 108.133V107.408L36.6719 107.404V109.697C36.27 110.018 35.8555 110.259 35.4284 110.422C35.0012 110.582 34.5629 110.662 34.1133 110.662C33.5063 110.662 32.9541 110.533 32.4567 110.275C31.9621 110.013 31.5884 109.637 31.3355 109.145C31.0826 108.653 30.9561 108.104 30.9561 107.497C30.9561 106.896 31.0812 106.335 31.3313 105.815C31.5842 105.292 31.9467 104.905 32.4188 104.652C32.8909 104.399 33.4346 104.272 34.05 104.272C34.4968 104.272 34.9001 104.345 35.2598 104.491C35.6223 104.635 35.9061 104.836 36.1112 105.094C36.3164 105.353 36.4723 105.69 36.5791 106.106L35.8415 106.308C35.7487 105.993 35.6335 105.746 35.4958 105.566C35.3581 105.386 35.1614 105.243 34.9057 105.136C34.65 105.027 34.3662 104.972 34.0542 104.972C33.6805 104.972 33.3573 105.03 33.0848 105.145C32.8122 105.257 32.5916 105.406 32.423 105.592C32.2572 105.777 32.1279 105.981 32.0352 106.203C31.8778 106.585 31.7991 106.999 31.7991 107.446C31.7991 107.997 31.8933 108.458 32.0816 108.829C32.2726 109.2 32.5494 109.475 32.9119 109.655C33.2744 109.835 33.6594 109.925 34.0669 109.925C34.421 109.925 34.7666 109.857 35.1038 109.722C35.441 109.585 35.6967 109.439 35.871 109.284V108.133H34.0542ZM38.8228 110.557V104.378H39.6616L42.9072 109.229V104.378H43.6912V110.557H42.8524L39.6068 105.701V110.557H38.8228ZM52.7236 110.557V104.378H55.0546C55.4649 104.378 55.7782 104.397 55.9946 104.437C56.2981 104.487 56.5524 104.584 56.7575 104.728C56.9627 104.868 57.1271 105.066 57.2507 105.322C57.3771 105.578 57.4404 105.859 57.4404 106.165C57.4404 106.69 57.2732 107.136 56.9388 107.501C56.6044 107.864 56.0002 108.045 55.1263 108.045H53.5414V110.557H52.7236ZM53.5414 107.316H55.1389C55.6672 107.316 56.0424 107.217 56.2644 107.021C56.4863 106.824 56.5973 106.547 56.5973 106.19C56.5973 105.932 56.5313 105.711 56.3992 105.528C56.27 105.343 56.0986 105.221 55.885 105.162C55.7473 105.125 55.493 105.107 55.122 105.107H53.5414V107.316ZM59.448 110.557V104.378H63.916V105.107H60.2657V106.999H63.6842V107.724H60.2657V109.828H64.0593V110.557H59.448ZM66.1512 110.557V104.378H68.8911C69.4419 104.378 69.8606 104.434 70.1472 104.546C70.4338 104.656 70.6628 104.851 70.8343 105.132C71.0057 105.413 71.0914 105.724 71.0914 106.064C71.0914 106.502 70.9495 106.872 70.6657 107.172C70.3818 107.473 69.9435 107.664 69.3505 107.746C69.5669 107.85 69.7313 107.952 69.8437 108.053C70.0826 108.272 70.3088 108.546 70.5223 108.875L71.5972 110.557H70.5687L69.751 109.271C69.5121 108.901 69.3154 108.617 69.1608 108.42C69.0063 108.223 68.8672 108.086 68.7435 108.007C68.6227 107.928 68.4991 107.873 68.3726 107.843C68.2799 107.823 68.1281 107.813 67.9174 107.813H66.969V110.557H66.1512ZM66.969 107.105H68.7267C69.1004 107.105 69.3927 107.067 69.6034 106.991C69.8142 106.912 69.9744 106.789 70.084 106.62C70.1936 106.449 70.2484 106.263 70.2484 106.064C70.2484 105.771 70.1416 105.531 69.928 105.343C69.7172 105.155 69.3828 105.061 68.9248 105.061H66.969V107.105ZM73.3013 110.557V104.378H74.5321L75.9948 108.753C76.1297 109.16 76.228 109.465 76.2898 109.668C76.3601 109.443 76.4697 109.113 76.6186 108.677L78.0981 104.378H79.1983V110.557H78.41V105.385L76.6144 110.557H75.8767L74.0895 105.297V110.557H73.3013ZM81.6063 110.557V104.378H82.424V110.557H81.6063ZM86.3917 110.557V105.107H84.3558V104.378H89.2538V105.107H87.2094V110.557H86.3917ZM90.7682 108.572L91.5396 108.504C91.5761 108.813 91.6604 109.068 91.7925 109.267C91.9273 109.464 92.1353 109.624 92.4163 109.748C92.6973 109.869 93.0134 109.929 93.3647 109.929C93.6766 109.929 93.952 109.883 94.1909 109.79C94.4297 109.697 94.6068 109.571 94.722 109.411C94.84 109.248 94.899 109.071 94.899 108.879C94.899 108.686 94.8428 108.517 94.7304 108.374C94.618 108.227 94.4325 108.105 94.174 108.007C94.0082 107.942 93.6415 107.843 93.0739 107.708C92.5062 107.57 92.1086 107.441 91.881 107.32C91.5859 107.165 91.3653 106.974 91.2192 106.747C91.0759 106.516 91.0042 106.259 91.0042 105.975C91.0042 105.663 91.0927 105.372 91.2698 105.103C91.4468 104.83 91.7053 104.624 92.0454 104.483C92.3854 104.343 92.7633 104.272 93.1792 104.272C93.6373 104.272 94.0405 104.347 94.389 104.496C94.7403 104.642 95.01 104.858 95.1983 105.145C95.3866 105.431 95.4877 105.756 95.5018 106.119L94.7178 106.178C94.6756 105.787 94.5323 105.492 94.2878 105.292C94.0462 105.093 93.6879 104.993 93.213 104.993C92.7184 104.993 92.3573 105.084 92.1297 105.267C91.9049 105.447 91.7925 105.665 91.7925 105.92C91.7925 106.142 91.8725 106.325 92.0327 106.468C92.1901 106.612 92.6004 106.759 93.2635 106.911C93.9295 107.06 94.3862 107.191 94.6335 107.303C94.9932 107.469 95.2587 107.68 95.4301 107.935C95.6015 108.188 95.6873 108.48 95.6873 108.812C95.6873 109.141 95.5931 109.451 95.4048 109.744C95.2166 110.033 94.9454 110.259 94.5913 110.422C94.2401 110.582 93.8438 110.662 93.4026 110.662C92.8434 110.662 92.3741 110.581 91.9948 110.418C91.6182 110.255 91.3218 110.011 91.1054 109.685C90.8918 109.356 90.7794 108.985 90.7682 108.572ZM104.458 110.557V104.378H106.789C107.2 104.378 107.513 104.397 107.729 104.437C108.033 104.487 108.287 104.584 108.492 104.728C108.697 104.868 108.862 105.066 108.985 105.322C109.112 105.578 109.175 105.859 109.175 106.165C109.175 106.69 109.008 107.136 108.673 107.501C108.339 107.864 107.735 108.045 106.861 108.045H105.276V110.557H104.458ZM105.276 107.316H106.874C107.402 107.316 107.777 107.217 107.999 107.021C108.221 106.824 108.332 106.547 108.332 106.19C108.332 105.932 108.266 105.711 108.134 105.528C108.005 105.343 107.833 105.221 107.62 105.162C107.482 105.125 107.228 105.107 106.857 105.107H105.276V107.316ZM111.178 110.557V104.378H113.918C114.469 104.378 114.888 104.434 115.174 104.546C115.461 104.656 115.69 104.851 115.861 105.132C116.033 105.413 116.119 105.724 116.119 106.064C116.119 106.502 115.977 106.872 115.693 107.172C115.409 107.473 114.971 107.664 114.378 107.746C114.594 107.85 114.758 107.952 114.871 108.053C115.11 108.272 115.336 108.546 115.55 108.875L116.624 110.557H115.596L114.778 109.271C114.539 108.901 114.343 108.617 114.188 108.42C114.033 108.223 113.894 108.086 113.771 108.007C113.65 107.928 113.526 107.873 113.4 107.843C113.307 107.823 113.155 107.813 112.945 107.813H111.996V110.557H111.178ZM111.996 107.105H113.754C114.128 107.105 114.42 107.067 114.631 106.991C114.841 106.912 115.002 106.789 115.111 106.62C115.221 106.449 115.276 106.263 115.276 106.064C115.276 105.771 115.169 105.531 114.955 105.343C114.744 105.155 114.41 105.061 113.952 105.061H111.996V107.105ZM118.105 107.547C118.105 106.522 118.38 105.719 118.931 105.141C119.482 104.559 120.193 104.268 121.064 104.268C121.635 104.268 122.149 104.404 122.607 104.677C123.065 104.95 123.413 105.33 123.652 105.819C123.894 106.305 124.015 106.858 124.015 107.476C124.015 108.102 123.888 108.663 123.635 109.158C123.382 109.652 123.024 110.027 122.56 110.283C122.097 110.536 121.597 110.662 121.06 110.662C120.478 110.662 119.958 110.522 119.5 110.241C119.042 109.96 118.695 109.576 118.459 109.09C118.223 108.604 118.105 108.09 118.105 107.547ZM118.948 107.56C118.948 108.305 119.148 108.892 119.547 109.322C119.949 109.749 120.452 109.963 121.056 109.963C121.671 109.963 122.177 109.746 122.573 109.314C122.972 108.881 123.172 108.267 123.172 107.472C123.172 106.969 123.086 106.53 122.915 106.156C122.746 105.78 122.497 105.489 122.168 105.284C121.843 105.076 121.476 104.972 121.068 104.972C120.489 104.972 119.991 105.172 119.572 105.571C119.156 105.967 118.948 106.63 118.948 107.56ZM125.605 108.804L126.343 108.702C126.362 109.175 126.451 109.498 126.608 109.672C126.766 109.846 126.983 109.933 127.262 109.933C127.467 109.933 127.644 109.887 127.793 109.794C127.942 109.699 128.044 109.571 128.1 109.411C128.157 109.248 128.185 108.989 128.185 108.635V104.378H129.002V108.589C129.002 109.106 128.939 109.506 128.813 109.79C128.689 110.074 128.491 110.29 128.218 110.439C127.949 110.588 127.631 110.662 127.266 110.662C126.723 110.662 126.308 110.506 126.018 110.195C125.731 109.883 125.594 109.419 125.605 108.804ZM131.305 110.557V104.378H135.773V105.107H132.123V106.999H135.541V107.724H132.123V109.828H135.916V110.557H131.305ZM142.405 108.39L143.222 108.597C143.051 109.269 142.742 109.781 142.295 110.136C141.851 110.487 141.307 110.662 140.664 110.662C139.998 110.662 139.456 110.528 139.037 110.258C138.621 109.985 138.303 109.592 138.084 109.078C137.868 108.563 137.76 108.011 137.76 107.421C137.76 106.777 137.882 106.217 138.126 105.739C138.374 105.259 138.723 104.895 139.176 104.647C139.631 104.397 140.131 104.272 140.677 104.272C141.295 104.272 141.815 104.43 142.236 104.744C142.658 105.059 142.951 105.502 143.117 106.072L142.312 106.262C142.169 105.812 141.961 105.485 141.688 105.28C141.416 105.075 141.073 104.972 140.66 104.972C140.185 104.972 139.787 105.086 139.467 105.313C139.149 105.541 138.926 105.847 138.797 106.232C138.667 106.615 138.603 107.009 138.603 107.417C138.603 107.942 138.679 108.402 138.83 108.795C138.985 109.186 139.224 109.478 139.547 109.672C139.87 109.866 140.22 109.963 140.596 109.963C141.054 109.963 141.442 109.831 141.76 109.567C142.077 109.302 142.292 108.91 142.405 108.39ZM146.756 110.557V105.107H144.72V104.378H149.618V105.107H147.574V110.557H146.756ZM154.577 110.557V104.378H155.808L157.271 108.753C157.406 109.16 157.504 109.465 157.566 109.668C157.636 109.443 157.746 109.113 157.895 108.677L159.374 104.378H160.474V110.557H159.686V105.385L157.89 110.557H157.153L155.366 105.297V110.557H154.577ZM162.065 110.557L164.438 104.378H165.319L167.848 110.557H166.916L166.195 108.686H163.612L162.933 110.557H162.065ZM163.848 108.02H165.943L165.298 106.308C165.101 105.788 164.955 105.361 164.859 105.027C164.781 105.423 164.67 105.816 164.526 106.207L163.848 108.02ZM169.442 110.557V104.378H170.281L173.527 109.229V104.378H174.311V110.557H173.472L170.226 105.701V110.557H169.442ZM175.96 110.557L178.333 104.378H179.214L181.743 110.557H180.812L180.091 108.686H177.507L176.828 110.557H175.96ZM177.743 108.02H179.838L179.193 106.308C178.996 105.788 178.85 105.361 178.755 105.027C178.676 105.423 178.565 105.816 178.422 106.207L177.743 108.02ZM186.238 108.133V107.408L188.855 107.404V109.697C188.454 110.018 188.039 110.259 187.612 110.422C187.185 110.582 186.746 110.662 186.297 110.662C185.69 110.662 185.138 110.533 184.64 110.275C184.146 110.013 183.772 109.637 183.519 109.145C183.266 108.653 183.14 108.104 183.14 107.497C183.14 106.896 183.265 106.335 183.515 105.815C183.768 105.292 184.13 104.905 184.602 104.652C185.074 104.399 185.618 104.272 186.234 104.272C186.68 104.272 187.084 104.345 187.443 104.491C187.806 104.635 188.09 104.836 188.295 105.094C188.5 105.353 188.656 105.69 188.763 106.106L188.025 106.308C187.932 105.993 187.817 105.746 187.679 105.566C187.542 105.386 187.345 105.243 187.089 105.136C186.834 105.027 186.55 104.972 186.238 104.972C185.864 104.972 185.541 105.03 185.268 105.145C184.996 105.257 184.775 105.406 184.607 105.592C184.441 105.777 184.312 105.981 184.219 106.203C184.061 106.585 183.983 106.999 183.983 107.446C183.983 107.997 184.077 108.458 184.265 108.829C184.456 109.2 184.733 109.475 185.096 109.655C185.458 109.835 185.843 109.925 186.25 109.925C186.605 109.925 186.95 109.857 187.287 109.722C187.625 109.585 187.88 109.439 188.055 109.284V108.133H186.238ZM191.032 110.557V104.378H195.5V105.107H191.849V106.999H195.268V107.724H191.849V109.828H195.643V110.557H191.032ZM197.697 110.557V104.378H198.928L200.39 108.753C200.525 109.16 200.624 109.465 200.686 109.668C200.756 109.443 200.865 109.113 201.014 108.677L202.494 104.378H203.594V110.557H202.806V105.385L201.01 110.557H200.272L198.485 105.297V110.557H197.697ZM205.88 110.557V104.378H210.348V105.107H206.697V106.999H210.116V107.724H206.697V109.828H210.491V110.557H205.88ZM212.562 110.557V104.378H213.401L216.646 109.229V104.378H217.43V110.557H216.592L213.346 105.701V110.557H212.562ZM221.331 110.557V105.107H219.295V104.378H224.193V105.107H222.148V110.557H221.331Z" fill="black"/>
<path d="M88.2469 50.778H97.459V54.2434H88.2469V50.778ZM91.641 71.2278C90.8321 70.2616 90.4277 68.8204 90.4277 66.9014V44.4354H94.0464V66.923C94.0464 67.6383 94.1997 68.1969 94.509 68.6018C94.8183 69.0066 95.2729 69.2117 95.8756 69.2117H97.459V72.6772H95.4447C93.716 72.6772 92.4498 72.1941 91.641 71.2278Z" fill="#252629"/>
<path d="M100.113 42.0413H103.711V72.5691H100.113V42.0413ZM109.552 57.3497C109.552 56.173 109.309 55.2931 108.823 54.7048C108.336 54.1164 107.607 53.8222 106.631 53.8222C105.656 53.8222 104.929 54.1326 104.44 54.7561C103.954 55.3795 103.711 56.3133 103.711 57.5603L103.28 54.3269C103.774 53.0125 104.443 52.0274 105.283 51.377C106.124 50.7265 107.11 50.4 108.233 50.4C109.851 50.4 111.075 50.9209 111.905 51.9653C112.735 53.0071 113.15 54.5455 113.15 56.5751V72.5745H109.552V57.3524V57.3497Z" fill="#252629"/>
<path d="M124.339 50.7779H127.937V72.5718H124.339V50.7779ZM133.779 57.3687C133.779 56.1785 133.536 55.2905 133.049 54.7022C132.563 54.1138 131.833 53.8196 130.858 53.8196C129.882 53.8196 129.153 54.13 128.666 54.7534C128.18 55.3769 127.937 56.3188 127.937 57.5765L127.506 54.4485C128 53.0909 128.669 52.0761 129.51 51.4041C130.35 50.732 131.336 50.3973 132.46 50.3973C134.077 50.3973 135.301 50.9182 136.131 51.9627C136.961 53.0045 137.376 54.5429 137.376 56.5725V72.5718H133.779V57.3714V57.3687Z" fill="#252629"/>
<path d="M141.058 42.0413H144.656V72.5691H141.058V42.0413ZM142.911 65.012L151.65 50.7751H155.496L143.075 69.6083L142.911 65.0093V65.012ZM147.228 61.1714L149.324 58.1891L156.337 72.5718H152.369L147.228 61.1714Z" fill="#252629"/>
<rect x="116.993" y="50.7611" width="3.59275" height="21.8064" fill="#252629"/>
<rect x="116.92" y="43.8145" width="3.59275" height="3.32715" fill="#64AF37"/>
<path d="M159.855 51.2333H170.691C173.051 51.2333 174.816 51.7946 175.987 52.9171C177.167 54.0395 177.757 55.6369 177.757 57.7092C177.757 59.839 177.114 61.5036 175.828 62.7028C174.552 63.902 172.6 64.5016 169.971 64.5016H166.402V72.3302H159.855V51.2333ZM166.402 60.2276H168C169.256 60.2276 170.139 60.0117 170.648 59.58C171.156 59.1387 171.41 58.5774 171.41 57.8963C171.41 57.2343 171.19 56.6731 170.748 56.2126C170.307 55.7521 169.477 55.5218 168.259 55.5218H166.402V60.2276ZM181.268 72.3302V51.2333H192.133C194.148 51.2333 195.688 51.406 196.752 51.7514C197.817 52.0968 198.676 52.7396 199.328 53.6798C199.981 54.6104 200.307 55.7473 200.307 57.0904C200.307 58.2608 200.058 59.273 199.559 60.1268C199.06 60.9711 198.374 61.6571 197.501 62.1847C196.944 62.5205 196.182 62.7987 195.213 63.0194C195.99 63.2784 196.556 63.5375 196.911 63.7965C197.151 63.9692 197.496 64.3385 197.947 64.9046C198.407 65.4706 198.714 65.9071 198.868 66.2141L202.019 72.3302H194.651L191.169 65.8832C190.728 65.0485 190.334 64.5064 189.989 64.257C189.519 63.9308 188.986 63.7677 188.391 63.7677H187.816V72.3302H181.268ZM187.816 59.7815H190.564C190.862 59.7815 191.437 59.6855 192.291 59.4936C192.723 59.4073 193.073 59.1866 193.342 58.8317C193.62 58.4767 193.759 58.069 193.759 57.6085C193.759 56.9273 193.543 56.4044 193.112 56.0399C192.68 55.6753 191.869 55.493 190.68 55.493H187.816V59.7815ZM203.3 61.7962C203.3 58.352 204.26 55.6705 206.178 53.7517C208.097 51.833 210.769 50.8736 214.194 50.8736C217.705 50.8736 220.411 51.8186 222.31 53.7086C224.21 55.589 225.16 58.2273 225.16 61.6235C225.16 64.0891 224.742 66.1134 223.908 67.6964C223.083 69.2698 221.884 70.4978 220.31 71.3804C218.746 72.2535 216.794 72.69 214.453 72.69C212.074 72.69 210.102 72.311 208.538 71.5531C206.984 70.7952 205.723 69.596 204.754 67.9554C203.785 66.3149 203.3 64.2618 203.3 61.7962ZM209.819 61.825C209.819 63.9548 210.213 65.485 210.999 66.4156C211.796 67.3462 212.875 67.8115 214.237 67.8115C215.638 67.8115 216.722 67.3558 217.49 66.4444C218.257 65.533 218.641 63.8972 218.641 61.5371C218.641 59.5512 218.238 58.1025 217.432 57.1911C216.636 56.2701 215.552 55.8096 214.18 55.8096C212.865 55.8096 211.81 56.2749 211.014 57.2055C210.217 58.1361 209.819 59.6759 209.819 61.825Z" fill="#252629"/>
</g>
<defs>
<clipPath id="clip0_1_3234">
<rect width="222.605" height="103.029" fill="white" transform="translate(5.19304 14.3424)"/>
</clipPath>
</defs>
</svg>
